<svg xmlns="http://www.w3.org/2000/svg" viewBox="0 0 1009 1004.93"><defs><style>.cls-1{fill:#30bb00;}.cls-2{fill:#d5d6d4;}.cls-3{fill:#afafaf;}</style></defs><g id="Layer_1" data-name="Layer 1"><path class="cls-1" d="M528,238.4C485.09,114.68,395.45,31.66,294.32,22,184.27,11.54,70,91.9,39.1,194.37-17,380.29,180,705.11,527.37,1011.93" transform="translate(-5 -7)"/><path class="cls-1" d="M498.72,239.26C536.77,113.15,622.21,25,721.47,9.43c108-16.92,223.22,56.65,257.17,157.2,61.61,182.43-121.31,518.43-452.93,845.27" transform="translate(-5 -7)"/></g><g id="Layer_2" data-name="Layer 2"><path class="cls-2" d="M979.54,288.55c-26.53,35.74-85,103.07-184.32,140.37-34.38,12.91-81.89,30.76-143.88,25.7-83.94-6.85-112-49-145.1-33.37-46.93,22.1-55.73,137.28-5.9,218.18,43.2,70.12,125.47,106.37,196,109.5,49.56,2.2,86.38-12.43,106.43-20.53,144.62-58.49,191-212.5,197.25-234.53,29-101.94,6.26-190.27-7.81-232" transform="translate(-5 -7)"/><path class="cls-3" d="M40.2,289.29c25.39,36.4,81.52,105.17,178,145.07,33.39,13.82,79.52,32.9,140.12,29.52,82.07-4.58,110.06-45.86,142.18-29.4C546,457.8,552.88,573,503,652.41c-43.21,68.83-124.07,102.8-193,104-48.42.86-84.17-14.73-103.63-23.36C66.08,670.81,23,515.85,17.25,493.68c-26.8-102.52-3.34-190.08,11-231.39" transform="translate(-5 -7)"/><path class="cls-3" d="M258.74,902.69" transform="translate(-5 -7)"/><path class="cls-3" d="M490.34,431.09" transform="translate(-5 -7)"/><path class="cls-3" d="M484.88,509.06a116.79,116.79,0,0,1,20.9.8l-10.32-1.39c14,2,27.31,6.21,40.26,11.66l-9.27-3.91c30.83,13.25,59.44,31.77,88.42,48.57S673,597.94,701.52,615.5a523,523,0,0,1,44.15,30.06l-7.86-6.07c17.06,13.22,33.19,27.89,46.59,44.86l-6.07-7.85a115.88,115.88,0,0,1,15.39,25.58l-3.91-9.28A75.79,75.79,0,0,1,794.55,710l-1.38-10.32a55.84,55.84,0,0,1,.13,13.55l1.38-10.33a38.58,38.58,0,0,1-2.55,9.11l3.92-9.28a32.39,32.39,0,0,1-2.63,4.53l6.07-7.86a25.42,25.42,0,0,1-3.57,3.69l7.86-6.07a25.77,25.77,0,0,1-3.32,2.05l9.27-3.92a26.14,26.14,0,0,1-6.45,1.71l10.33-1.39a44.3,44.3,0,0,1-8.46-.27l10.33,1.39a74.22,74.22,0,0,1-17.12-4.79l9.28,3.92a105.26,105.26,0,0,1-22.34-13.5l7.86,6.08c-12.44-9.84-23-21.63-33.86-33.09-12.78-13.47-26.64-26.12-42.53-35.86-14.36-8.81-29.53-16.31-44-24.89s-28.9-17.67-43-27.12q-23.71-16-46.35-33.42l7.86,6.07q-18.67-14.43-36.56-29.81c-7.92-6.81-16.72-11.38-27.46-11.38-9.53,0-20.9,4.23-27.46,11.38-6.79,7.4-11.84,17.11-11.37,27.46.44,9.84,3.62,20.79,11.37,27.46A964.91,964.91,0,0,0,594.34,637Q617,652,640.58,665.67c15.95,9.24,33.13,17,47.82,28.22l-7.85-6.07c16.3,12.79,29.24,29,44,43.41,17.8,17.31,39.34,33.1,63.86,39.06,18,4.38,36.46,4.17,52.94-5.08,14.1-7.9,24.76-23.9,27.85-39.61,5.41-27.54-1.83-55.45-17-78.79-25.36-39-64-68.22-102.7-92.87-37.51-23.86-76.64-45.31-115.09-67.6-45.7-26.5-94.46-57.83-149.55-54.95-10.28.54-20.05,4-27.46,11.37-6.74,6.74-11.81,17.79-11.37,27.46.45,10,3.74,20.46,11.37,27.46,7.37,6.77,17.15,11.92,27.46,11.38Z" transform="translate(-5 -7)"/><path class="cls-3" d="M148.39,696.4c31.58,19,63,38.25,94.79,56.93,14.85,8.72,29.92,17.12,45.58,24.32,19.15,8.8,39.11,15.28,58.53,23.38L338,797.11c13.78,5.89,26.72,13.46,39.76,20.81l41.67,23.49,83.36,47c13,7.32,25.88,15,39.38,21.39,18.43,8.71,35.85,14.55,56.1,16.76,14.84,1.61,31.11-.07,45-5.45,8-3.1,15.44-6.3,22.28-11.42a102.64,102.64,0,0,0,25.59-27.07c8.4-12.72,14.14-27.13,22-40.22a409.65,409.65,0,0,1,26.91-39.08L734,811.15c17.68-22.82,37.13-44.17,56.61-65.46,6.91-7.55,11.37-17,11.37-27.46,0-9.52-4.23-20.9-11.37-27.46-7.41-6.79-17.12-11.83-27.46-11.37-10,.45-20.48,3.74-27.46,11.37-23.14,25.28-45.8,50.82-66.42,78.22a384,384,0,0,0-25.85,38.72c-7.55,13.07-13.1,27.53-22.13,39.69l6.07-7.86a57.72,57.72,0,0,1-8.83,9.12l7.86-6.07a57.33,57.33,0,0,1-11.61,6.93l9.27-3.92A68,68,0,0,1,608,850.06l10.32-1.38a83.13,83.13,0,0,1-21.55,0l10.33,1.39a118.4,118.4,0,0,1-28.42-8.31l9.28,3.91c-16.53-7.13-32-16.49-47.68-25.32l-49.49-27.88C458,774,425.63,754.54,392.28,737.18c-20.93-10.9-43.48-17.68-65.16-26.79l9.28,3.92c-25.51-10.91-49.33-25.14-73-39.41l-75.76-45.57c-17.43-10.48-43.42-4.45-53.13,13.93-9.94,18.81-4.67,42,13.93,53.14Z" transform="translate(-5 -7)"/><path class="cls-3" d="M526.17,564.8c-27,16-54,31.9-80.92,48C416.55,630,389,649.09,368.82,676.18c-13.13,17.63-20,39-15.73,60.91,4.36,22.47,24.31,40.32,46.45,44.58,21.42,4.13,41.41,0,61-8.75,13.77-6.13,25.85-15.63,37.21-25.41C510,737,521.2,725.26,532.64,713.92c12-11.93,23.58-25.29,37-35.68l-7.85,6.08a48.27,48.27,0,0,1,8.71-5.14l-9.28,3.92A36.33,36.33,0,0,1,569,681l-10.33,1.39a32.28,32.28,0,0,1,6.37,0L554.74,681a29.94,29.94,0,0,1,4.56,1.18L550,678.29a25.9,25.9,0,0,1,4.07,2.23l-7.86-6.07a25.46,25.46,0,0,1,4.16,4.14l-6.07-7.86a32.89,32.89,0,0,1,3,5.14l-3.92-9.27a38.6,38.6,0,0,1,2.38,8.77L544.37,665a46.75,46.75,0,0,1-.11,11.09l1.39-10.32a55.66,55.66,0,0,1-3.53,12.26l3.92-9.28a68.08,68.08,0,0,1-7.38,12.58l6.07-7.86a83.2,83.2,0,0,1-14.25,14.13l7.86-6.07c-10.92,8.37-23.16,14.63-35.29,21l-40.46,21.33c-15.41,8.13-21.85,27.67-17.84,43.86,5.94,24,27.54,43.25,51.63,48s48.37-1.42,68-16.25c18.29-13.84,33-30.42,46-49.35,9.83-14.33,16.07-30.9,26.6-44.74l-6.08,7.86a61.58,61.58,0,0,1,9-9.17L632,710.19a47.94,47.94,0,0,1,9.47-5.7l-9.28,3.91a37.68,37.68,0,0,1,9-2.42l-10.32,1.38a35.11,35.11,0,0,1,7.46.15L628,706.12a37.12,37.12,0,0,1,6.53,1.78L625.25,704a40.8,40.8,0,0,1,8.22,4.69l-7.86-6.08a65,65,0,0,1,10.95,11.1l-6.07-7.86A150.59,150.59,0,0,1,641.61,723v-39.2q-7.3,11.68-15.71,22.61l6.07-7.86a269.66,269.66,0,0,1-40.71,41.88c-6.94,5.73-11.77,18.68-11.37,27.46a40.13,40.13,0,0,0,8.33,23.53c11.09,14.34,34,21,50.1,10,18.35-12.56,33.76-31.39,37.17-54,1-6.94,1.91-13.72,0-20.65a38.51,38.51,0,0,0-13.92-20.17c-12-9.27-29.83-11.27-43.13-3-15,9.28-27.77,21.36-39.49,34.43-9.84,11-19.39,22.2-31,31.42l7.86-6.07a90,90,0,0,1-19.13,11.55l9.28-3.91a63.69,63.69,0,0,1-15.15,4.13l10.32-1.39c-1,.13-2.11.23-3.17.3-15.8,1.22-29.12,8.77-35.49,23.87A37,37,0,0,0,499.84,818c1,7.79,4.35,17.12,10.68,22.3,13.93,11.41,28.56,20.24,46.12,25,17.4,4.76,34.66,4.8,52.28,1.79,19.4-3.32,37-15.21,47.81-31.48,12.53-18.79,12.84-44,2-63.43l-13.94,53.13c35.7-17.91,66.46-48.88,83.91-84.83,4.62-9.5,6.8-19.43,3.92-29.92-2.48-9-9.45-18.77-17.85-23.21-9-4.76-19.93-7.15-29.92-3.91-9.21,3-18.84,8.82-23.21,17.84a159,159,0,0,1-16.3,26.55l6.07-7.86a160.8,160.8,0,0,1-28.57,28.66l7.86-6.07a160.16,160.16,0,0,1-25.11,15.69c-8,4-15.87,14.53-17.84,23.21-2.35,10.31-1.32,20.55,3.91,29.92a17.15,17.15,0,0,1,1.28,2.53L589,804.64a27.24,27.24,0,0,1,1.13,4l-1.38-10.32a26.34,26.34,0,0,1,0,7l1.39-10.32a33.2,33.2,0,0,1-1.57,5.53l3.91-9.28a31.93,31.93,0,0,1-3.63,6.25l6.07-7.86a34.47,34.47,0,0,1-5.49,5.24l7.86-6.07a44.1,44.1,0,0,1-6.81,3.9l9.28-3.92a56,56,0,0,1-13.82,3.69l10.32-1.38a79.68,79.68,0,0,1-19.58-.17L587,792.4a84.55,84.55,0,0,1-19-5.18l9.28,3.92a83,83,0,0,1-17.08-9.81L568,787.4c-.87-.67-1.73-1.35-2.57-2.06L538,851.63c16.23-1.26,30.73-5.24,45-13.21,11.27-6.28,21.64-14.82,30.85-23.82,14.88-14.54,27-31.71,43.54-44.56l-7.86,6.07c2.62-2,5.3-3.81,8.09-5.54l-57-43.86a48.87,48.87,0,0,1-3.22,11.51l3.91-9.27a52.07,52.07,0,0,1-5.26,9l6.07-7.86a49.74,49.74,0,0,1-8.4,8.51l7.86-6.07c-.79.6-1.6,1.18-2.44,1.73l47.06,61C670.8,775,691.78,750,708.67,723c7.34-11.78,6.76-27.38,0-39.2-9.37-16.4-20.57-31.08-36-42.15-19.19-13.76-44.42-15.14-65.74-6.14C586.67,644,572,660.3,561.46,679.26c-7.71,13.82-14.72,27.58-24.38,40.21l6.07-7.86c-7.66,9.82-16.13,19.14-25.88,26.92l7.86-6.07a74.65,74.65,0,0,1-15.1,9.18l9.28-3.91a52.62,52.62,0,0,1-12.25,3.43l10.33-1.39a39.52,39.52,0,0,1-9.35-.07l10.32,1.39a42,42,0,0,1-9.06-2.49l9.28,3.91a39.78,39.78,0,0,1-6.9-3.91l7.86,6.07a32.85,32.85,0,0,1-5.54-5.39l6.07,7.86a29.61,29.61,0,0,1-3.19-5.54l3.92,9.27a32.36,32.36,0,0,1-1.16-3.74L501.79,791c20.74-10.93,42.07-21.17,62.2-33.2,25-15,46.22-35.86,55-64.35,10.48-34.15-4.68-80-43.57-87.31-18.47-3.47-37.38.1-52.79,11.12-11.85,8.49-21.79,18.88-32.1,29.09-17.92,17.77-35.21,36.94-55.2,52.44l7.86-6.07a109.53,109.53,0,0,1-21.76,13.15l9.28-3.91a70.8,70.8,0,0,1-18,5L423,705.54a52.37,52.37,0,0,1-11.74.06L421.58,707a38.45,38.45,0,0,1-8.1-2.1l9.27,3.92a29.06,29.06,0,0,1-5.84-3.39l7.86,6.07a28,28,0,0,1-2.84-2.82l6.07,7.86a23.37,23.37,0,0,1-2.86-5l3.92,9.28a27.47,27.47,0,0,1-1.07-4.36l1.38,10.32a32.39,32.39,0,0,1,0-6.07L428,731a43.27,43.27,0,0,1,3-10.58l-3.92,9.27a78.2,78.2,0,0,1,8.78-14.33l-6.07,7.86c7.62-9.77,16.79-18.08,26.54-25.67l-7.85,6.07c17.48-13.37,36.7-24.22,55.59-35.43l61.28-36.35a40.29,40.29,0,0,0,17.85-23.21c2.56-9.29,1.4-21.67-3.92-29.92-11.33-17.59-34.43-25-53.13-13.93Z" transform="translate(-5 -7)"/><path class="cls-3" d="M816.32,712.6l1.18.47-9.28-3.91a30,30,0,0,1,5.13,2.94L805.49,706a27.54,27.54,0,0,1,3.92,3.79L803.33,702a27.83,27.83,0,0,1,3.28,5.47l-3.92-9.28a36.1,36.1,0,0,1,2.28,8.47l-1.39-10.33a60.18,60.18,0,0,1-.27,15.23l1.38-10.32a107,107,0,0,1-4.75,19.07c-3.15,9.18-.88,21.74,3.91,29.92S817.8,765.92,827.06,768c21.58,4.92,40.7-6.53,47.77-27.12,4.75-13.85,7.91-29.44,6.48-44.06-1.14-11.72-3.4-22.74-10-32.81a56.64,56.64,0,0,0-10.94-12.94c-8.37-6.92-13.26-9.31-23.45-13.39-8.74-3.51-22.16-.63-29.92,3.91-8.06,4.71-15.74,14-17.85,23.21-2.26,9.94-1.77,21.1,3.92,29.92l6.07,7.86a38.76,38.76,0,0,0,17.14,10Z" transform="translate(-5 -7)"/><path class="cls-2" d="M514.3,416.14c-35.42,6.65-71,12.78-106.28,20A147.69,147.69,0,0,0,375.86,447c-9.74,4.47-18.24,11.26-26.44,18-11.66,9.66-22.29,21.36-31.79,33.12-7.07,8.77-14.34,17.73-19.12,28-6.32,13.61-10.48,27-10.3,42.28.21,18.23,12.86,35.8,30.81,40.46,19,4.94,36.36.87,53.58-7.48,8.6-4.18,16.55-9.73,24.88-14.39a536.82,536.82,0,0,1,52.45-25.42l-10,4.23c19.09-8,38.51-15.28,58.06-22.16,9.49-3.34,19-6.59,28.53-9.83,9.89-3.36,19.75-7.1,30.12-8.67l-11.15,1.5a67.81,67.81,0,0,1,17.14.12l-11.16-1.5a99.38,99.38,0,0,1,23.11,6.79l-10-4.24c17.6,7.62,33.93,18.1,50.47,27.72l52.55,30.56c33.85,19.69,67.31,40.46,102.34,58,12,6,24.37,11.41,36.82,16.55,9.37,3.86,19.06,6.9,28.39,10.83l-10-4.23a64.91,64.91,0,0,1,12,6.73l-8.49-6.56a45.78,45.78,0,0,1,5.6,5.18c14.8,16.29,44.51,16.16,59.34,0,16-17.41,15.8-42,0-59.35-17.37-19.1-43.34-24.69-66.26-34.24l10,4.23c-31.8-13.46-61.46-31.25-91.25-48.57l-95.63-55.63c-15.92-9.25-31.59-18.64-48.59-25.81-8.89-3.76-17.7-7.23-27.28-8.77-14.91-2.41-27.1-2.58-42.05,0-16.45,2.85-32.53,9.77-48.26,15.22S452.66,470.92,437.05,477c-20.35,8-40.56,16.46-60.16,26.13Q364.23,509.4,352,516.38c-8.26,4.72-16.17,10.24-24.91,14l10-4.23a43.57,43.57,0,0,1-8.15,2.4l11.16-1.5a29.73,29.73,0,0,1-6.6.12l11.16,1.5a19.6,19.6,0,0,1-3.3-.71l30.81,40.47a57,57,0,0,1,.28-6.27l-1.5,11.15a54.69,54.69,0,0,1,3.67-13.4l-4.24,10A92,92,0,0,1,382,551l-6.57,8.49c10.69-13.53,22.88-27,36.53-37.59l-8.5,6.56A82.11,82.11,0,0,1,419,519.12l-10,4.23c9.37-3.93,19.27-5.91,29.22-7.78L471,509.4l65.59-12.33c9.85-1.85,20.18-10.92,25.08-19.28,5.26-9,7.49-22.26,4.23-32.34s-9.58-19.95-19.28-25.08c-10.45-5.52-20.72-6.42-32.34-4.23Z" transform="translate(-5 -7)"/><path class="cls-2" d="M224.42,741.09c-1.27,20.1-5.44,42.37,6,60.42,15.13,23.92,43.58,28.87,69.46,23.75,17.21-3.4,32.73-17.91,36.79-35.07a103.83,103.83,0,0,0,2.47-27.37c-.59-12.37-3.09-24.35-9.26-35.22-6.3-11.11-16-18.83-26.55-25.57-18.56-11.79-47.1-4.47-57.42,15.06-11,20.74-4.75,44.83,15.06,57.42,1.84,1.17,3.65,2.36,5.4,3.66l-8.49-6.56a29.92,29.92,0,0,1,4.5,4.43l-6.56-8.49a29.31,29.31,0,0,1,2.84,5l-4.23-10a37.43,37.43,0,0,1,1.86,7l-1.5-11.16a81.1,81.1,0,0,1-.33,19.38l1.5-11.16a11.66,11.66,0,0,1-.59,2.55l4.23-10-.59,1.15,6.56-8.49-.86,1,8.49-6.57a7.34,7.34,0,0,1-2.26,1.43l10-4.23a23.82,23.82,0,0,1-4.1,1l11.15-1.5a49.71,49.71,0,0,1-11.88.16l11.16,1.5a25.88,25.88,0,0,1-4.83-1.29l10,4.24a18.85,18.85,0,0,1-3-1.79l8.5,6.56a9.85,9.85,0,0,1-1.62-1.67l6.56,8.5a9.89,9.89,0,0,1-1.21-2.09l4.23,10a11.87,11.87,0,0,1-.86-3.41l1.5,11.15c-.63-11.08,1.13-22.67,1.84-33.74.65-10.33-5.15-22.54-12.3-29.68s-19.22-12.76-29.67-12.29c-10.85.49-22.11,4-29.68,12.29-7.8,8.5-11.55,18.09-12.29,29.68Z" transform="translate(-5 -7)"/><path class="cls-2" d="M316.17,766.71c-.46,4.8-.85,9.6-1.41,14.39l1.5-11.16-.32,1.39,4.23-10-.6,1.27,6.56-8.49-.81.92,8.49-6.56a7.32,7.32,0,0,1-2.12,1.25l10-4.23C330.12,749.85,321,754,313.19,764.1c-5.42,7-7.59,14.92-10.76,23l4.23-10a30.33,30.33,0,0,1-2.19,3.73l6.56-8.49a89.68,89.68,0,0,1-8.21,8.56c-7.24,7.15-13.49,15.45-16.41,25.34-3.74,12.7-2.71,27.15,4.59,38.55,3.66,5.72,8.44,12.71,12.93,17.39,12.86,13.39,31.68,16.93,49.56,15.88,16.78-1,31.7-5.4,45.06-15.72A167.37,167.37,0,0,0,420.15,842c7.24-8,12.44-16.32,15.22-26.85,1.95-7.39,2.2-15.33,2.1-23-.19-15.73,1.4-33-6.59-47.19-7.46-13.27-21.1-20.8-33.3-29.09C388.93,710,375,709,365.24,711.68S345,721.89,340.16,731c-5.15,9.74-7.72,21.54-4.23,32.34s9.86,18.67,19.29,25.08c5.23,3.55,10.69,6.93,15.71,10.79l-8.49-6.56a10.35,10.35,0,0,1,1.89,2l-6.57-8.49.65,1.21-4.23-10,.38,1.37-1.5-11.16c.63,5.83.31,11.86.39,17.72.07,5.69.44,11.46-.22,17.13l1.49-11.15a27.13,27.13,0,0,1-1.24,4.68l4.23-10a23.18,23.18,0,0,1-2.45,4.06l6.56-8.49a138.18,138.18,0,0,1-18.37,18.23l8.5-6.56a37.38,37.38,0,0,1-6.91,4l10-4.23a42.57,42.57,0,0,1-9.44,2.38l11.15-1.5a82.91,82.91,0,0,1-18-.31l11.16,1.5a8.09,8.09,0,0,1-2.76-.83l10,4.23-1.29-1,8.49,6.57-1.09-1.2,6.57,8.49a103,103,0,0,1-7-9.93l4.23,10-.4-1.1,1.5,11.15-.12-1.38-1.5,11.15a6.92,6.92,0,0,1,.76-2.69l-4.23,10a13.46,13.46,0,0,1,1.57-2.43l-6.57,8.49c3.5-4.22,7.83-7.62,11.37-11.81s7.09-8.48,9.65-13.37c3-5.75,4.36-10.71,6.27-16.5l-4.23,10a8.82,8.82,0,0,1,1.2-2.27l-6.56,8.5.87-.94-8.49,6.56a8.18,8.18,0,0,1,2.18-1.3l-10,4.23c4.94-1.87,10.27-3.45,14.82-6.12a47.38,47.38,0,0,0,19.58-23c4.21-10,4.31-21.22,5.34-31.95,1-10.1-5.38-22.76-12.29-29.67-7.28-7.28-19.22-12.76-29.67-12.29-10.86.48-22.11,4-29.68,12.29-7.93,8.64-11.17,18-12.29,29.67Z" transform="translate(-5 -7)"/><path class="cls-2" d="M417.9,786.83c-4.58,8.23-8.7,17.1-14.33,24.68l6.57-8.5c-3.9,4.72-9.16,8-13.13,12.65-8.53,10.05-13.31,19-18,31.33l4.23-10a10.44,10.44,0,0,1-1.24,2.42l6.56-8.49a9.67,9.67,0,0,1-1.91,1.87l8.5-6.57c-10,7.21-17.62,13.66-24.49,24a59.38,59.38,0,0,0-9.42,23.73l-1.5,11.15a31.56,31.56,0,0,0,3.62,16.17c3.74,8.87,9.25,14.46,17.17,20.07,12.08,8.56,27,14.71,42.05,14a60,60,0,0,0,28.62-8.35c5.85-3.51,11-8.22,16.31-12.44L459,921a32.85,32.85,0,0,1,7-4.26L456,921c9.65-3.25,18.78-5.44,26.16-13.47A53,53,0,0,0,494,886.88c.6-2,1.07-3.89,1.86-5.79l-4.23,10a46.25,46.25,0,0,1,5.24-8.37l-6.57,8.49c6.5-8.21,14.3-15.84,19.13-25.18,7-13.58,8.41-25.31,10.4-40.28l-1.5,11.16a58.08,58.08,0,0,1,3.25-14l-4.23,10a30.2,30.2,0,0,1,2.8-4.83l-6.56,8.5c6.12-7.4,11.12-13.91,14.11-23.16,4.84-15-1-32.94-11.77-43.7-9.42-9.37-22.8-13.32-35.41-16.38-10.77-2.63-22.66-1.44-32.33,4.23-8.71,5.09-17,15.07-19.29,25.08-2.45,10.74-1.92,22.8,4.23,32.33,5.83,9,14.36,16.68,25.08,19.29a121.12,121.12,0,0,1,15.27,4.54l-10-4.24,1.15.64-8.49-6.56.93.84-6.57-8.49.54,1.1L445.28,801l0,1.34L451,781.17a6.5,6.5,0,0,1-1.44,2.44l6.57-8.49c-7.93,9-13.16,17.26-16.67,28.84-2.41,7.92-2.87,16.63-3.95,24.75l1.5-11.15a59.25,59.25,0,0,1-3.35,14.22l4.23-10a46.91,46.91,0,0,1-5.23,8.53l6.56-8.5c-5.34,6.82-11,13.26-16.11,20.3-5,6.85-7.83,15-10.23,23.07l4.23-10-.5,1.1,6.56-8.5-.76.92,8.49-6.56-1,.65,10-4.23c-6.55,2.14-13.19,3.7-19.29,7.3s-11.33,8.48-16.86,12.81l8.49-6.56a36.3,36.3,0,0,1-5.82,3.67l10-4.23a22.65,22.65,0,0,1-4.21,1.25l11.16-1.49a24.41,24.41,0,0,1-4.91,0l11.16,1.5a32.5,32.5,0,0,1-6.4-1.91l10,4.23a67.91,67.91,0,0,1-10.38-6.25l19.28,47.39a35.2,35.2,0,0,1,2.32-8.54l-4.23,10a37.27,37.27,0,0,1,3.75-6.36l-6.57,8.49a36.73,36.73,0,0,1,5.17-5.26l-8.49,6.56c4.68-3.51,9.81-6.58,13.79-10.89,6.56-7.1,9.54-14.85,13.12-23.68l-4.23,10a47.91,47.91,0,0,1,5.63-9.47l-6.56,8.5a57.15,57.15,0,0,1,7.91-7.72c5.47-4.53,9.65-10.08,13.68-16,4.88-7.14,8.72-15.18,12.93-22.73a43.83,43.83,0,0,0,4.23-32.34c-2.68-9.73-10.21-20.28-19.29-25.08-19.77-10.45-46-5.42-57.42,15.06Z" transform="translate(-5 -7)"/><path class="cls-2" d="M506.79,821.89c-17.94,6.39-31.41,16.54-42.39,32.06-4.22,6-7.12,13.08-9.37,20-1.39,4.25-1.59,8.76-3.14,13l4.23-10a12.43,12.43,0,0,1-1.31,2.37l6.56-8.5-.88,1.06c-8.83,10.61-13.42,21.29-11.54,35.25,1.68,12.51,8.52,24.51,20,30.66,10.74,5.74,20.45,8,32.5,9,8.24.68,17-1.06,25-2.31a50.57,50.57,0,0,0,28.1-14.06c8.51-8.36,12.39-20.21,13-31.86.11-2.09,0-4.19.25-6.28l-1.5,11.16.3-1.17-4.23,10,.54-1.08-6.56,8.5.85-1-8.49,6.56c2-1.46,4.4-2.22,6.49-3.57a52.62,52.62,0,0,0,18.31-19.18c7.26-13.35,8.56-28.73,5.06-43.39-4.9-20.48-21.21-36.15-39.15-45.83-9.79-5.29-21.47-7.23-32.34-4.23-9.73,2.68-20.28,10.2-25.08,19.28-10.32,19.55-5.57,46.28,15.06,57.42a74.66,74.66,0,0,1,9.75,6.14l-8.49-6.56a41.4,41.4,0,0,1,5.8,5.74l-6.56-8.49a31.49,31.49,0,0,1,3.1,5.25l-4.23-10a27.6,27.6,0,0,1,1.62,5.85l-1.5-11.16a25.78,25.78,0,0,1,0,4.48l1.5-11.15a22,22,0,0,1-1.25,4.34l4.23-10a12.14,12.14,0,0,1-1.6,2.59l6.56-8.5-1,1.1,8.49-6.57a38.39,38.39,0,0,1-5.46,3,47.33,47.33,0,0,0-17.55,17.09c-5.31,9.6-6,19.13-6.81,29.7l1.5-11.15-.24,1.14,4.23-10-.46,1,6.57-8.49-.74.9,8.5-6.56-1.2.78,10-4.23a52,52,0,0,1-9.28,1.82l11.16-1.49a56,56,0,0,1-14.57.3l11.15,1.5a34.8,34.8,0,0,1-6.08-1.64l10,4.23a22.94,22.94,0,0,1-2.86-1.4l8.49,65.91c6.64-8,12.2-16.25,14.29-26.64A59.92,59.92,0,0,1,537.21,893L533,903a43.54,43.54,0,0,1,4.31-7.26l-6.56,8.5a42,42,0,0,1,7-7l-8.49,6.56a41.45,41.45,0,0,1,7.28-4.25l-10,4.23c.86-.37,1.74-.71,2.63-1,10.43-3.72,19.35-9.5,25.08-19.29,5.27-9,7.5-22.25,4.23-32.34s-9.58-20-19.28-25.08-21.77-8-32.34-4.23Z" transform="translate(-5 -7)"/><path class="cls-3" d="M708.2,777.4c10.49,7.53,21.12,14.88,31.44,22.64L731.78,794a49.84,49.84,0,0,1,7.56,7.1l-6.07-7.86a37.38,37.38,0,0,1,4.65,7.94L734,791.87a40.42,40.42,0,0,1,2.06,7.4L734.67,789a38.26,38.26,0,0,1,.15,9.2l1.39-10.33a38.06,38.06,0,0,1-1.4,6l3.92-9.27a11.74,11.74,0,0,1-1.38,2.71l6.08-7.86-1,1.13,7.86-6.07a6.23,6.23,0,0,1-2.37,1.42l9.28-3.92c-6,1.67-10.87,2.83-16.59,6.33-8,4.89-12.56,11.52-17,19.47l6.08-7.85a7.54,7.54,0,0,1-1.88,1.9l7.86-6.07a11,11,0,0,1-2.4,1.27l9.28-3.91c-4.83,1.7-10,2.39-15.09,3.08l10.32-1.39a137.6,137.6,0,0,1-33.63,0l10.33,1.39-1.86-.25a39.11,39.11,0,0,0-20.65,0,29.25,29.25,0,0,0-13.2,7c-9.22,7.12-15.94,18.4-15.31,30.5.66,12.68,3.48,25.13,10.26,36.06a79.18,79.18,0,0,0,11,14c2.34,2.35,4.87,4.41,6.94,7l-6.08-7.86A12.17,12.17,0,0,1,687,874.9L683,865.63a8.55,8.55,0,0,1,.7,2.49l-1.39-10.32,0,1.34,1.39-10.33-.58,1.39,3.91-9.28a47.58,47.58,0,0,1-4.54,7.73l6.07-7.86a48.39,48.39,0,0,1-7.29,7.51l7.86-6.08a46.56,46.56,0,0,1-10.31,6l9.28-3.92a49,49,0,0,1-9.3,2.53l10.33-1.39a55.93,55.93,0,0,1-14.85,0l10.32,1.39a80.9,80.9,0,0,1-17.84-5.13l9.28,3.91a126.24,126.24,0,0,1-25.76-15.26l7.86,6.07c-1-.73-1.91-1.48-2.85-2.24-8.36-6.66-16.33-11.38-27.46-11.38-9.52,0-20.9,4.24-27.46,11.38-6.79,7.4-11.84,17.12-11.37,27.46.43,9.61,3.49,21.18,11.37,27.46,15.57,12.41,30.91,22.2,49.71,29,17.25,6.28,38.2,7.71,55.85,2.12,19.13-6.06,35.88-18.75,46.11-36.15,4.39-7.45,8.1-16.17,7.94-25a52.63,52.63,0,0,0-6.65-24.6C749,826.5,742,821.86,736.54,815l6.07,7.86a41,41,0,0,1-4-6.8l3.91,9.27a39.85,39.85,0,0,1-2.52-9.11l1.39,10.33q-.2-1.57-.24-3.15L692,860.81c17.47,2.38,33.49,3.28,51,.93,8.72-1.17,16.76-2.3,24.89-5.73a48.5,48.5,0,0,0,16.35-10.69c4.7-4.75,6-8,8.75-13l-6.07,7.86.8-1-7.86,6.07,1-.74-9.28,3.92c5.94-2.5,12.36-3.28,17.93-7,10.65-7.13,18.6-18,21.19-30.75a76.35,76.35,0,0,0-6.34-50.21c-6.45-13.36-18.11-22.27-29.82-30.7Q761,720.05,747.4,710.34c-7.74-5.56-21.1-6.35-29.92-3.92-9,2.48-18.77,9.45-23.21,17.85-4.76,9-7.15,19.93-3.92,29.92s9.22,17,17.85,23.21Z" transform="translate(-5 -7)"/></g></svg>